<svg xmlns="http://www.w3.org/2000/svg" viewBox="0 0 213.48 438.64"><defs><style>.cls-1{fill:#0fea58;}</style></defs><title>Fichier 336</title><g id="Calque_2" data-name="Calque 2"><g id="Calque_1-2" data-name="Calque 1"><path class="cls-1" d="M140,313.47c-5.44-4.92-.36-27.39,5.17-30.34,8.89-4.32,14.28,8.26,16.3,26.7.65,5.94,1.07,10.4,1.2,14.89a160.19,160.19,0,0,1-2,28.75c-3.79,23.71-12.05,42.3-18.91,50.89-2.54,3.18-4.88,5-7,5.79s-3.81.51-4.75-.88c-8.11-15.35-11.58-39.28-13.79-66.88-2.75-35.48,11.3-75.89,24-97,3.62-6,6.26-4.83,2.78-16,0-3.48-.08-7,.12-10.86a82.25,82.25,0,0,1,1.56-12.38c.39-1.94,2.51-12,6.06-17.79,8.56-9.28,21.54-20.26,27.33-47.36,1.29-7.56-2.37-8.18-4.53-6.6-7.38,6.52-14.7,5.27-18.27-7-3.85-14.27-3.68-33.69.79-56.27,8-39.48,23.77-66,37.22-69.39A9.85,9.85,0,0,1,198.77,0c8.44.31,11.69,15.36,12.59,19.79a93.39,93.39,0,0,1,1.19,33.14c-.1.74-.77,5.68-1.94,11s-2.84,11.18-4.41,5.33C201,43.68,190.52,12.74,175,41.21c-4.94,6.94-10.24,19.65-11.6,35-1.31,11.45-1.77,28.87,2.54,25.72,9.21-6.22,20.71-29.54,24.18-5.62,3.14,25.82-6.66,65-18.13,84.65-1.65,3.28-2.83,5.68-3.72,7.56-1.16,3-2.15,5.05-2.55,5.85-3.24,6.48-4.31,5-6.37,10.68a63.69,63.69,0,0,0-3.29,17.09c-.51,10.41,3.95,3.12,2.42,19.23-.41,4.39-1.67,6.83-3.47,8.9-10.88,9.37-30,37.22-26,69q2.5,29.6,10.59,48.48c2.41,4.29,6.14-2.85,8.64-10.2,5.37-20.48,4.67-45.89-2.91-43.9C143.37,314.18,141.61,315.61,140,313.47Z"/><path class="cls-1" d="M7.94,437.12c3.5,1.49,8.36,3.55,16.42-3.07,9.25-7.6,17.34-22.24,21.33-29.55a228.23,228.23,0,0,0,13.52-29c1.8-4.68,3.6-9.8,6.07-16.87,20.65-51.74,17.89-90.23-1-87.29-1.84.29-1.08-5.61,1.18-9.33,7.8-12.82,13.42-21.5,22.35-24,3.78-9.81,2.65-8.91,3.11-16.66.51-8.46,4.58-15.16,5.32-17.65a46.91,46.91,0,0,1,9.08-16.53c4.94-5.65,6.08-2.36,10.38-5.09,6.06-3.83,12.4-15.78,16.64-23.78a217,217,0,0,0,14.51-35.21c3.23-10.14,5.14-18.19,5.83-20.8,7.63-27,9.08-52.79,3.88-62.62-5.74-14-21.13-7.06-35.59,24.49A278.28,278.28,0,0,0,103.33,117c-4.92,20.59,4.49,21.71,11.68,10,6.58-9.93,9.08-23.25,11-34.75s4.36-22.8,10.9-28.7c5.34-4.27,9.45-2.9,10.54,5.55,3.69,41.67-29.21,89.29-47,98.51C97.18,170.3,93.8,173,91.45,177A116,116,0,0,0,85,191.43c-2.92,7.88-2.35,10.71-4.4,23.54-.95,4.21-3.92,9.49-8.8,17.24C61.88,250.67,49.91,268.9,42,292.54c-4.89,16.56-2,31,2.66,27.17,9.89-8.18,28-31.07,23.56-.21C65.06,340.68,56.59,362.11,47,379.11c-8.39,13.37-17.34,24.53-23.81,24.38-2.35-.78-3.46-7.22.14-14.1,4.11-7.84,8.06-15,12.23-23,2.74-5.23,2.76-11.67.05-9.46-7.69,6.27-17.91,12.47-24.41,13.73-1.81.24-3.29,3.57-4.51,7.36a168.58,168.58,0,0,0-5.51,25c-.62,4.44-2.67,19.85.77,28.38C3.47,435.22,5.43,436.05,7.94,437.12Z"/></g></g></svg>