<svg xmlns="http://www.w3.org/2000/svg" viewBox="0 0 239.97 160.72"><defs><style>.cls-1{fill:#30e578;}</style></defs><title>Calque 1-236</title><g id="Calque_2" data-name="Calque 2"><g id="Calque_1-2" data-name="Calque 1"><g id="Calque_1-2-2" data-name="Calque 1-2"><path class="cls-1" d="M50.67,155.7q-13.1-5-22-7.65T14,145.43q-6.1,0-9.28,2.84T0,157.22L15.06,75.79q-.21,13.75-1,25.54a60.49,60.49,0,0,0,2.07,21.29,34.62,34.62,0,0,0,11,16.48q8.08,7,25.11,11.14a28.59,28.59,0,0,0,5.9.65q10.25,0,19.32-7A40.45,40.45,0,0,0,90.63,126.2a81.7,81.7,0,0,0,5.78-23.58q.77-10.7-1.53-18.34T87.79,72.71a14.29,14.29,0,0,0-10.92-3.28,18.48,18.48,0,0,0-8.73,3.39A42,42,0,0,0,61.37,79q-3.06,3.49-5.89,7a33.47,33.47,0,0,1-6.12,5.89,42.71,42.71,0,0,1-8,4,22.41,22.41,0,0,1-8,1.64q-5.67,0-8.29-3.93a10.31,10.31,0,0,1-1.75-5.9,15.57,15.57,0,0,1,1.42-6.44A22.78,22.78,0,0,1,29,75.24a30.63,30.63,0,0,1,6.22-5.13,106.05,106.05,0,0,1,18.89-9.5q8.61-3.16,15.5-6A48,48,0,0,0,81.24,48q4.8-3.82,7.42-11.25a41.29,41.29,0,0,0,2.4-11.89,22.72,22.72,0,0,0-1.52-9.72A15.58,15.58,0,0,0,84.3,8.48a15.84,15.84,0,0,0-8.74-2.73,31.6,31.6,0,0,0-19,5.24A61.75,61.75,0,0,0,40.74,26.22,109.5,109.5,0,0,0,28.29,48.39,191.27,191.27,0,0,0,19.45,74L37.13,4.39Q45.44,2.65,55,1.33A138.82,138.82,0,0,1,73.82,0,77.85,77.85,0,0,1,89,1.44a29.92,29.92,0,0,1,12,5,19.41,19.41,0,0,1,7,9.82q2.09,6.22.11,15.61a31.41,31.41,0,0,1-4.69,11.9,26.05,26.05,0,0,1-8.08,7.42A46.65,46.65,0,0,1,83.75,56q-6.66,1.84-15.17,4.26Q55.91,63.74,49.91,69.1c-4,3.56-5.28,6.3-3.82,8.18a1.86,1.86,0,0,0,1.52.88c1.17,0,2.55-.77,4.15-2.29a52.79,52.79,0,0,1,6.34-5,60.5,60.5,0,0,1,9.49-5.24A40.41,40.41,0,0,1,80.8,62.47a36.07,36.07,0,0,1,15.61,2.07,34.24,34.24,0,0,1,12.88,8.52A40.56,40.56,0,0,1,118,87.47a57,57,0,0,1,3.16,19.76A65.81,65.81,0,0,1,118,128.3a52.48,52.48,0,0,1-9.28,16.92A41.91,41.91,0,0,1,94,156.46a45,45,0,0,1-19.32,4A66.58,66.58,0,0,1,50.67,155.7Z"/><path class="cls-1" d="M237.39,93.91Q241.53,108.76,239,121a48.1,48.1,0,0,1-9.71,21.07,49,49,0,0,1-18,13.76,56.67,56.67,0,0,1-23.69,4.91,103,103,0,0,1-21.29-2.29,48.4,48.4,0,0,1-20-9.5q-9.17-7.2-15.94-20.85T121,91.94q-2.62-23.35.43-40.72t11-28.71A48.6,48.6,0,0,1,153.18,5.59Q166,0,182.8,0a116.43,116.43,0,0,1,15.72,1.1q8.08,1.1,17.25,3.27L233.68,74q-5.9-21-12.78-34.5T206.49,18.25Q199,10.51,191.21,7.56A36.4,36.4,0,0,0,176,5.05Q163,5.7,155.18,10a33.72,33.72,0,0,0-12.11,10.77,40.44,40.44,0,0,0-6,14.52q-1.63,8-2.73,16.26a90.89,90.89,0,0,0-.54,12.56,119,119,0,0,0,1,13.86,73,73,0,0,0,2.29,11.24c.95,3.14,2.15,4.7,3.61,4.7s2.69-1.13,3.27-3.39a75.43,75.43,0,0,1,2.73-8.18,41.28,41.28,0,0,1,6-10.16q4.16-5.34,12.67-9.28a56.87,56.87,0,0,1,22.7-4.8,54.24,54.24,0,0,1,16.05,2.4,53,53,0,0,1,14.41,7A48.63,48.63,0,0,1,230.1,78.74,46.58,46.58,0,0,1,237.39,93.91Zm-39.08,60a22.41,22.41,0,0,0,10-7.53,32.77,32.77,0,0,0,5.89-12.67,55.75,55.75,0,0,0,1.31-15.93,59.53,59.53,0,0,0-3.71-17.58,67,67,0,0,0-7-13.86,55.45,55.45,0,0,0-9.17-10.7,40.1,40.1,0,0,0-10.48-6.88,26.51,26.51,0,0,0-10.7-2.4,22.6,22.6,0,0,0-7.64,1.31,21.59,21.59,0,0,0-10.16,7.53,35,35,0,0,0-5.89,12.66,53.45,53.45,0,0,0-1.42,15.94,60.17,60.17,0,0,0,3.71,17.58q5.67,15.28,16.16,24.56t21.61,9.28a21,21,0,0,0,7.49-1.22Z"/></g></g></g></svg>