<svg xmlns="http://www.w3.org/2000/svg" viewBox="0 0 285 285"><defs><style>.cls-1{fill:#242424;}.cls-2{fill:#30e578;}</style></defs><title>Fichier 136</title><g id="Calque_2" data-name="Calque 2"><g id="Calque_1-2" data-name="Calque 1"><circle class="cls-1" cx="142.5" cy="142.5" r="142.5"/><path class="cls-2" d="M73.7,212.7q-13.1-5-22.05-7.65T37,202.43q-6.1,0-9.28,2.84t-4.69,8.95l15.06-81.43q-.21,13.76-1,25.54a60.48,60.48,0,0,0,2.07,21.29A34.66,34.66,0,0,0,50.12,196.1q8.09,7,25.11,11.14a28.56,28.56,0,0,0,5.9.65q10.25,0,19.32-7a40.42,40.42,0,0,0,13.21-17.69,81.86,81.86,0,0,0,5.78-23.58q.77-10.69-1.53-18.34t-7.09-11.57a14.26,14.26,0,0,0-10.92-3.28,18.5,18.5,0,0,0-8.73,3.39,42,42,0,0,0-6.77,6.22q-3.06,3.49-5.89,7a33.51,33.51,0,0,1-6.12,5.89,42.59,42.59,0,0,1-8,4,22.31,22.31,0,0,1-8,1.64q-5.67,0-8.29-3.93a10.36,10.36,0,0,1-1.75-5.9,15.58,15.58,0,0,1,1.42-6.44A22.66,22.66,0,0,1,52,132.24a30.64,30.64,0,0,1,6.22-5.13,106.24,106.24,0,0,1,18.89-9.5q8.61-3.17,15.5-6A48.07,48.07,0,0,0,104.27,105q4.8-3.83,7.42-11.25a41.58,41.58,0,0,0,2.4-11.89,22.59,22.59,0,0,0-1.52-9.72,15.52,15.52,0,0,0-5.24-6.66,15.82,15.82,0,0,0-8.74-2.73,31.62,31.62,0,0,0-19,5.24A61.5,61.5,0,0,0,63.77,83.22a109.58,109.58,0,0,0-12.45,22.17A190.49,190.49,0,0,0,42.48,131L60.16,61.39q8.31-1.74,17.91-3.06A139.38,139.38,0,0,1,96.85,57,77.78,77.78,0,0,1,112,58.44a29.94,29.94,0,0,1,12,5,19.41,19.41,0,0,1,7,9.82q2.09,6.22.11,15.61a31.52,31.52,0,0,1-4.69,11.9,26.17,26.17,0,0,1-8.08,7.42A46.7,46.7,0,0,1,106.78,113q-6.66,1.84-15.17,4.26-12.67,3.48-18.67,8.84c-4,3.56-5.28,6.3-3.82,8.18a1.86,1.86,0,0,0,1.52.88c1.17,0,2.55-.77,4.15-2.29a53.31,53.31,0,0,1,6.34-5,60.57,60.57,0,0,1,9.49-5.24,40.36,40.36,0,0,1,13.21-3.16,36,36,0,0,1,15.61,2.07,34.31,34.31,0,0,1,12.88,8.52,40.57,40.57,0,0,1,8.74,14.41,57.13,57.13,0,0,1,3.16,19.76A65.67,65.67,0,0,1,141,185.3a52.46,52.46,0,0,1-9.28,16.92A42,42,0,0,1,117,213.46a45,45,0,0,1-19.32,4A66.61,66.61,0,0,1,73.7,212.7Z"/><path class="cls-2" d="M260.42,150.91q4.14,14.85,1.63,27.07a48.09,48.09,0,0,1-9.71,21.07,49,49,0,0,1-18,13.76,56.69,56.69,0,0,1-23.69,4.91,103,103,0,0,1-21.29-2.29,48.32,48.32,0,0,1-20-9.5q-9.17-7.2-15.94-20.85t-9.38-36.14q-2.62-23.35.43-40.72t11-28.71a48.58,48.58,0,0,1,20.74-16.92Q189,57,205.83,57a116.91,116.91,0,0,1,15.72,1.1q8.08,1.1,17.25,3.27L256.71,131q-5.89-21-12.78-34.5T229.52,75.25Q222,67.51,214.24,64.56a36.33,36.33,0,0,0-15.17-2.51Q186,62.69,178.21,67A33.74,33.74,0,0,0,166.1,77.77a40.56,40.56,0,0,0-6,14.52q-1.64,8-2.73,16.26a92.12,92.12,0,0,0-.54,12.56,118.33,118.33,0,0,0,1,13.86,72.52,72.52,0,0,0,2.29,11.24c.95,3.14,2.15,4.7,3.61,4.7s2.69-1.13,3.27-3.39a75.55,75.55,0,0,1,2.73-8.18,41.42,41.42,0,0,1,6-10.16q4.16-5.34,12.67-9.28a56.82,56.82,0,0,1,22.7-4.8,54,54,0,0,1,16.05,2.4,53,53,0,0,1,14.41,7,48.58,48.58,0,0,1,11.57,11.24A46.71,46.71,0,0,1,260.42,150.91Zm-39.08,60a22.39,22.39,0,0,0,10-7.53,32.84,32.84,0,0,0,5.89-12.67,56,56,0,0,0,1.31-15.93,59.63,59.63,0,0,0-3.71-17.58,66.85,66.85,0,0,0-7-13.86,55.61,55.61,0,0,0-9.17-10.7,40,40,0,0,0-10.48-6.88,26.48,26.48,0,0,0-10.7-2.4,22.6,22.6,0,0,0-7.64,1.31,21.6,21.6,0,0,0-10.16,7.53,35,35,0,0,0-5.89,12.66,53.55,53.55,0,0,0-1.42,15.94,60,60,0,0,0,3.71,17.58q5.67,15.29,16.16,24.56t21.61,9.28A21.08,21.08,0,0,0,221.34,211Z"/></g></g></svg>